<svg width="20" height="21" viewBox="0 0 20 21" fill="none" xmlns="http://www.w3.org/2000/svg">
<g clip-path="url(#clip0_529_2434)">
<path d="M18.3438 3.22559H13.4894C12.678 3.22504 11.8905 3.50088 11.2568 4.00768C10.6231 4.51448 10.181 5.22201 10.0031 6.01371C9.8249 5.22222 9.3826 4.51495 8.749 4.00823C8.11539 3.5015 7.3282 3.22549 6.51689 3.22559H1.66626C1.22423 3.22575 0.800353 3.40142 0.487789 3.71399C0.175225 4.02655 -0.000444703 4.45043 -0.000610352 4.89246V13.4275C-0.000444703 13.8695 0.175225 14.2934 0.487789 14.6059C0.800353 14.9185 1.22423 15.0942 1.66626 15.0943H4.78064C8.32939 15.0943 9.38814 15.9412 9.89501 17.6987C9.91939 17.7962 10.0756 17.7962 10.1031 17.6987C10.6138 15.9418 11.6725 15.0943 15.2175 15.0943H18.3319C18.7739 15.0942 19.1978 14.9185 19.5104 14.6059C19.8229 14.2934 19.9986 13.8695 19.9988 13.4275V4.89621C19.9988 4.45567 19.8247 4.03297 19.5145 3.72018C19.2043 3.40738 18.783 3.22984 18.3425 3.22621L18.3438 3.22559ZM8.40252 12.4406C8.40268 12.4566 8.39966 12.4724 8.39363 12.4872C8.38759 12.502 8.37867 12.5154 8.36737 12.5267C8.35608 12.538 8.34265 12.5469 8.32786 12.5529C8.31308 12.559 8.29723 12.562 8.28126 12.5618H2.71501C2.69907 12.5619 2.68326 12.5588 2.66852 12.5528C2.65377 12.5467 2.64037 12.5378 2.62909 12.5265C2.61782 12.5152 2.60889 12.5018 2.60283 12.4871C2.59676 12.4723 2.59368 12.4565 2.59376 12.4406V11.6456C2.59376 11.58 2.64564 11.5243 2.71501 11.5243H8.28439C8.35001 11.5243 8.40564 11.5762 8.40564 11.6456V12.4406H8.40252ZM8.40252 10.3262C8.4026 10.3422 8.39952 10.358 8.39345 10.3727C8.38739 10.3875 8.37846 10.4009 8.36719 10.4121C8.35591 10.4234 8.34251 10.4323 8.32776 10.4384C8.31301 10.4445 8.29721 10.4475 8.28126 10.4475H2.71501C2.69907 10.4475 2.68326 10.4445 2.66852 10.4384C2.65377 10.4323 2.64037 10.4234 2.62909 10.4121C2.61782 10.4009 2.60889 10.3875 2.60283 10.3727C2.59676 10.358 2.59368 10.3422 2.59376 10.3262V9.53121C2.59376 9.46496 2.64564 9.40996 2.71501 9.40996H8.28439C8.35001 9.40996 8.40564 9.46184 8.40564 9.53121V10.3262H8.40252ZM8.40252 8.21184C8.4026 8.22778 8.39952 8.24359 8.39345 8.25833C8.38739 8.27308 8.37846 8.28648 8.36719 8.29776C8.35591 8.30903 8.34251 8.31796 8.32776 8.32403C8.31301 8.33009 8.29721 8.33317 8.28126 8.33309H2.71501C2.69907 8.33317 2.68326 8.33009 2.66852 8.32403C2.65377 8.31796 2.64037 8.30903 2.62909 8.29776C2.61782 8.28648 2.60889 8.27308 2.60283 8.25833C2.59676 8.24359 2.59368 8.22778 2.59376 8.21184V7.41684C2.59376 7.35121 2.64564 7.29559 2.71501 7.29559H8.28439C8.35001 7.29559 8.40564 7.34746 8.40564 7.41684V8.21184H8.40252ZM17.4063 12.4375C17.4063 12.4534 17.4033 12.4692 17.3972 12.484C17.3911 12.4987 17.3822 12.5121 17.3709 12.5234C17.3597 12.5347 17.3463 12.5436 17.3315 12.5497C17.3168 12.5557 17.301 12.5588 17.285 12.5587H11.7188C11.7028 12.5588 11.687 12.5557 11.6723 12.5497C11.6575 12.5436 11.6441 12.5347 11.6328 12.5234C11.6216 12.5121 11.6126 12.4987 11.6066 12.484C11.6005 12.4692 11.5974 12.4534 11.5975 12.4375V11.6425C11.5975 11.5768 11.6494 11.5212 11.7188 11.5212H17.2881C17.3544 11.5212 17.4094 11.5731 17.4094 11.6425V12.4375H17.4063ZM17.4063 10.3231C17.4064 10.3391 17.4034 10.3549 17.3974 10.3697C17.3913 10.3845 17.3824 10.3979 17.3711 10.4092C17.3598 10.4205 17.3464 10.4294 17.3316 10.4354C17.3168 10.4415 17.301 10.4445 17.285 10.4443H11.7188C11.7028 10.4444 11.687 10.4413 11.6723 10.4353C11.6575 10.4292 11.6441 10.4203 11.6328 10.409C11.6216 10.3977 11.6126 10.3843 11.6066 10.3696C11.6005 10.3548 11.5974 10.339 11.5975 10.3231V9.52809C11.5975 9.46246 11.6494 9.40684 11.7188 9.40684H17.2881C17.3544 9.40684 17.4094 9.45871 17.4094 9.52809V10.3231H17.4063ZM17.4063 8.20809C17.4063 8.22403 17.4033 8.23984 17.3972 8.25458C17.3911 8.26933 17.3822 8.28273 17.3709 8.29401C17.3597 8.30528 17.3463 8.31421 17.3315 8.32028C17.3168 8.32634 17.301 8.32942 17.285 8.32934H11.7188C11.7028 8.32942 11.687 8.32634 11.6723 8.32028C11.6575 8.31421 11.6441 8.30528 11.6328 8.29401C11.6216 8.28273 11.6126 8.26933 11.6066 8.25458C11.6005 8.23984 11.5974 8.22403 11.5975 8.20809V7.41621C11.5975 7.35059 11.6494 7.29496 11.7188 7.29496H17.2881C17.3544 7.29496 17.4094 7.34684 17.4094 7.41621V8.20809H17.4063Z" fill="#374151"/>
</g>
<defs>
<clipPath id="clip0_529_2434">
<rect width="20" height="20" fill="white" transform="translate(0 0.5)"/>
</clipPath>
</defs>
</svg>
