<svg width="104" height="40" viewBox="0 0 104 40" fill="none" xmlns="http://www.w3.org/2000/svg">
<path d="M3.42308 3.47949C2.86577 3.04404 2.16599 2.99379 1.53325 2.75932C0.942417 2.5374 0.519195 2.0852 0.611382 1.46552C0.707759 0.81652 1.17288 0.364317 1.89781 0.36013C4.98188 0.339195 8.06596 0.251266 11.1458 0.355943C13.0315 0.422936 14.3053 1.5995 15.0554 3.30364C16.8195 7.31066 18.5837 11.3177 20.331 15.3289C22.3633 19.9975 24.3747 24.6702 26.4028 29.3388C26.9643 30.6326 27.0271 31.8301 26.2896 33.1491C25.351 34.8239 24.6596 36.6285 23.8425 38.3703C23.5534 38.9858 23.2265 39.6474 22.4346 39.6809C21.5462 39.7227 21.1858 39.0235 20.8841 38.3494C18.018 31.9306 15.1685 25.5077 12.3066 19.0931C10.4796 15.0023 8.69031 10.8948 6.76696 6.8459C6.21803 5.69445 5.87861 4.22061 4.29467 3.86052C3.99716 3.73491 3.70803 3.60511 3.42308 3.47949Z" fill="#374151"/>
<path d="M97.7297 39.9614C96.6863 39.9614 95.6303 39.8776 94.5953 39.9823C93.1538 40.1247 92.3996 39.4003 91.8716 38.2028C90.669 35.4603 89.4915 32.7052 88.2009 30.0003C87.3293 28.1748 86.2859 26.4288 85.3096 24.6535C84.5888 23.3471 83.6502 22.2668 82.259 21.6136C81.6347 21.3205 80.9852 20.9311 81.0732 20.1272C81.1737 19.2438 81.9573 19.0595 82.6822 18.8795C83.139 18.7664 83.5915 18.6492 84.0483 18.5445C88.314 17.5689 89.9231 14.7092 89.7555 10.7482C89.5669 6.33504 86.3278 3.2701 82.1543 3.04819C81.1653 2.99376 80.168 3.03563 79.1791 2.96864C78.3872 2.9142 77.6958 2.53737 77.6664 1.67483C77.6329 0.7788 78.2112 0.188424 79.1163 0.154927C83.7172 -0.0293035 88.3308 -0.196786 92.7097 1.62459C96.3217 3.12774 98.1822 5.90377 98.5049 9.77681C98.8527 13.9136 97.7841 17.2884 93.7908 19.3066C91.8925 20.2654 92.0141 20.3115 93.0156 22.1956C94.7252 25.4113 96.3594 28.6688 97.9559 31.9431C99.0119 34.1078 100.558 35.8245 102.444 37.2775C103.035 37.7297 103.621 38.2363 103.32 39.0988C103.018 39.9739 102.217 39.9572 101.488 39.9697C100.235 39.9907 98.9784 39.9781 97.7255 39.9781C97.7297 39.9697 97.7297 39.9656 97.7297 39.9614Z" fill="#374151"/>
<path d="M35.5833 18.0507C35.5833 13.2984 35.5665 8.54608 35.5917 3.79376C35.6042 0.883752 36.4172 0.104958 39.3378 0.0965837C42.007 0.0882095 44.6721 0.0798354 47.3413 0.0965837C48.1794 0.100771 49.1767 0.0589001 49.3778 1.11404C49.5789 2.16918 48.6277 2.47484 47.8567 2.79305C44.9905 3.99056 44.2447 5.10013 44.2028 8.16925C44.098 16.0032 43.9723 23.8331 43.8675 31.6671C43.8256 34.8953 44.6888 36.1598 47.643 37.4075C48.347 37.7048 49.3024 37.9602 49.1096 38.9526C48.9294 39.8905 48.0034 39.9533 47.203 39.9575C42.183 39.9658 37.1588 39.9658 32.1388 39.9575C31.724 39.9575 31.305 39.8821 30.9027 39.7858C30.4082 39.6644 30.0521 39.3336 30.0144 38.8144C29.9808 38.3496 30.3244 38.0356 30.7016 37.8514C31.1667 37.6211 31.6737 37.4703 32.164 37.2987C34.4603 36.4948 35.5623 35.0209 35.5707 32.6217C35.5959 27.7647 35.5833 22.9077 35.5833 18.0507Z" fill="#374151"/>
<path d="M70.698 39.5313C68.2383 39.5313 65.7828 39.7741 63.3231 39.7574C62.8077 39.7532 62.2839 39.682 61.7768 39.5815C61.3075 39.4894 61.0771 39.1168 61.0519 38.6729C61.0268 38.2291 61.2111 37.8565 61.6595 37.6806C61.9025 37.5885 62.154 37.5173 62.4012 37.4336C65.7367 36.3324 66.3359 35.1097 65.0411 31.8522C62.7741 26.1494 60.4695 20.4592 58.1899 14.7606C57.4985 13.0272 56.8113 11.2937 56.1576 9.54771C55.6338 8.15342 55.8392 6.85961 56.6144 5.56162C57.3812 4.26782 57.9762 2.86934 58.609 1.50017C58.9232 0.821864 59.3171 -0.0364848 60.0043 0.00119882C60.7209 0.0430695 61.2656 0.817677 61.5841 1.56297C62.5227 3.76956 63.4655 5.97196 64.4 8.18273C67.7103 16.0083 70.9997 23.8382 74.3352 31.6512C75.3702 34.0714 76.9332 36.0393 79.5061 37.0274C80.1346 37.2703 80.8512 37.5927 80.6919 38.4468C80.5327 39.3219 79.791 39.5229 79.0158 39.5271C76.2418 39.5397 73.472 39.5313 70.698 39.5313C70.698 39.4559 70.698 39.6108 70.698 39.5313Z" fill="#374151"/>
<path d="M13.446 39.9741C9.5574 39.9741 5.9663 39.9867 2.3752 39.9616C1.83884 39.9574 1.10134 40.0872 0.912775 39.367C0.694879 38.5463 1.43656 38.337 1.9855 38.069C3.91304 37.1395 5.2288 35.6656 6.0082 33.681C6.26381 33.032 6.38114 32.1108 7.30301 32.1192C8.20812 32.1276 8.32126 33.0571 8.61458 33.6893C9.70406 36.0257 11.2629 37.8052 13.9237 38.3286C14.4307 38.4291 14.8917 38.6678 14.7743 39.2205C14.5984 40.0453 13.508 39.9741 13.446 39.9741Z" fill="#374151"/>
</svg>
