<svg width="174" height="97" viewBox="0 0 174 97" fill="none" xmlns="http://www.w3.org/2000/svg">
<g opacity="0.16">
<path d="M145.845 4.5293L87.0298 24.552L28.155 4.5293L0 45.2878L87.0298 74.9357L174 45.2878L145.845 4.5293Z" fill="#4E2999"/>
<path opacity="0.45" d="M10.2599 43.6246L82.4368 71.1336L57.6223 46.6548C57.6223 46.6548 16.8811 36.8513 10.2599 43.6246Z" fill="#240F4F"/>
<path opacity="0.45" d="M163.8 43.6246L91.6229 71.1336L116.437 46.6548C116.378 46.6548 157.119 36.8513 163.8 43.6246Z" fill="#240F4F"/>
<path d="M87.0298 74.936L0 45.2881V49.15L87.0298 78.798L174 49.15V45.2881L87.0298 74.936Z" fill="#1E40AF"/>
<path d="M40.6816 92.7602L50.7625 66.4395L83.2123 77.4906L40.6816 92.7602Z" fill="#1E3A8A"/>
<path opacity="0.45" d="M43.4852 85.1551L83.2123 77.4906L50.7626 66.4395L43.4852 85.1551Z" fill="#1E3A8A"/>
<path d="M87.03 76.124L40.6816 92.7601L44.1414 96.3844L87.03 81.1743L129.859 96.3844L133.378 92.7601L87.03 76.124Z" fill="#1E40AF"/>
<path d="M133.378 92.7602L123.238 66.4395L90.7879 77.4906L133.378 92.7602Z" fill="#1E3A8A"/>
<path opacity="0.45" d="M130.515 85.1551L90.7879 77.4906L123.238 66.4395L130.515 85.1551Z" fill="#1E3A8A"/>
<path d="M87.0298 81.1739C88.7758 81.1739 90.1913 79.7641 90.1913 78.0249C90.1913 76.2858 88.7758 74.876 87.0298 74.876C85.2838 74.876 83.8683 76.2858 83.8683 78.0249C83.8683 79.7641 85.2838 81.1739 87.0298 81.1739Z" fill="white" fill-opacity="0.5"/>
<path d="M143.34 4.53027L87.0298 32.4552L30.7198 4.53027C28.1549 7.91691 7.51587 42.1992 7.51587 42.1992C7.75447 42.1992 7.93342 42.2586 8.17202 42.2586C59.9485 47.4277 74.3242 63.6479 79.0963 67.5692C83.8683 71.55 87.0894 71.1341 87.0894 71.1341C87.0894 71.1341 90.3105 71.55 95.0826 67.5692C99.8546 63.6479 114.23 47.4277 166.007 42.2586C166.245 42.2586 166.424 42.1992 166.663 42.1992C166.544 42.1992 145.845 7.97632 143.34 4.53027Z" fill="#F5B304"/>
<path d="M166.544 42.1982C166.305 42.1982 166.126 42.2577 165.888 42.2577C114.111 47.4267 99.7354 63.647 94.9633 67.5683C90.1913 71.5491 86.9702 71.1332 86.9702 71.1332C86.9702 71.1332 83.7491 71.5491 78.977 67.5683C74.205 63.647 59.8293 47.4267 8.05279 42.2577C7.81419 42.2577 7.63524 42.1982 7.39664 42.1982C6.97909 42.8518 7.39664 43.3271 7.39664 43.3271C59.71 48.3774 73.6085 64.657 78.3805 68.6378C83.1526 72.5591 86.9105 72.2621 86.9105 72.2621C86.9105 72.2621 90.6685 72.5591 95.4405 68.6378C100.213 64.7164 114.111 48.4368 166.424 43.3271C166.544 43.3271 166.961 42.8518 166.544 42.1982Z" fill="#1E40AF"/>
<path d="M141.192 1.26184C112.381 -5.63027 86.9702 17.9574 86.9702 17.9574C86.9702 17.9574 61.5592 -5.63027 32.7481 1.26184C32.7481 1.26184 24.576 13.7389 13.3021 34.9499C13.3021 34.9499 70.0295 41.3073 86.9702 65.0138C103.911 41.3073 160.638 34.9499 160.638 34.9499C149.364 13.7389 141.192 1.26184 141.192 1.26184Z" fill="#F5EFFB"/>
<path d="M160.638 34.9502C160.638 34.9502 103.911 41.3076 86.9702 65.014C70.0892 41.3076 13.3617 34.9502 13.3617 34.9502C13.3617 34.9502 13.3617 36.8515 10.2003 40.5946C10.2003 40.5946 61.6785 44.2783 80.4087 65.5488C84.8228 70.5396 86.9702 69.9455 86.9702 69.9455C86.9702 69.9455 89.1773 70.5396 93.5318 65.5488C112.202 44.2783 163.74 40.5946 163.74 40.5946C160.638 36.7921 160.638 34.9502 160.638 34.9502Z" fill="#DFCBF4"/>
<path d="M137.971 3.75728C137.971 3.75728 116.437 -1.70887 86.9702 21.0469C57.5626 -1.64946 35.9692 3.75728 35.9692 3.75728L21.4145 31.9198C65.675 34.95 86.9702 57.2305 86.9702 57.2305C86.9702 57.2305 108.265 34.95 152.526 31.9198L137.971 3.75728ZM87.0299 54.5568C87.0299 54.5568 67.1066 34.237 24.8742 30.2562L37.1025 4.94558C37.1025 4.94558 58.2784 0.845964 87.0299 22.3541C115.781 0.845964 136.957 4.94558 136.957 4.94558L149.185 30.2562C106.953 34.237 87.0299 54.5568 87.0299 54.5568Z" fill="#7A00FF"/>
<path opacity="0.2" d="M92.458 42.2537C100.411 36.4113 125.266 23.4824 141.968 25.2648" stroke="#7A00FF" stroke-width="3" stroke-linecap="round"/>
<path opacity="0.2" d="M92.458 25.859C99.5166 20.354 117.869 9.56792 134.81 10.4636" stroke="#7A00FF" stroke-width="3" stroke-linecap="round"/>
<path opacity="0.2" d="M92.458 34.1771C100.113 28.2487 120.016 16.6329 138.389 17.5976" stroke="#7A00FF" stroke-width="3" stroke-linecap="round"/>
<path opacity="0.2" d="M82.3175 42.2537C74.3641 36.4113 49.5098 23.4824 32.8077 25.2648" stroke="#7A00FF" stroke-width="3" stroke-linecap="round"/>
<path opacity="0.2" d="M82.3175 25.859C75.2589 20.354 56.9065 9.56792 39.9658 10.4636" stroke="#7A00FF" stroke-width="3" stroke-linecap="round"/>
<path opacity="0.2" d="M82.3175 34.1771C74.6624 28.2487 54.7591 16.6329 36.3868 17.5976" stroke="#7A00FF" stroke-width="3" stroke-linecap="round"/>
<path d="M87.0298 17.9574C87.0298 17.9574 87.6263 15.8778 88.7596 16.472C88.7596 16.472 88.0438 50.1601 89.2368 63.2908C89.5351 66.5586 92.3983 71.0147 93.5317 72.6783H92.0404L91.6229 74.0448C91.6229 74.0448 87.2087 66.618 87.0298 63.7067C86.135 50.6354 86.6122 21.1063 87.0298 17.9574Z" fill="#54DAF5"/>
</g>
</svg>
