<svg width="218" height="98" viewBox="0 0 218 98" fill="none" xmlns="http://www.w3.org/2000/svg">
<path opacity="0.25" d="M109.037 98.0002C160.764 98.0002 202.696 90.7911 202.696 81.8981C202.696 73.0051 160.764 65.7959 109.037 65.7959C57.3108 65.7959 15.3783 73.0051 15.3783 81.8981C15.3783 90.7911 57.3108 98.0002 109.037 98.0002Z" fill="#374151"/>
<path d="M108.915 23.1945L109.037 23.2254L109.16 23.1945L182.223 4.74664L216.558 41.6118L109.037 68.7969L1.44194 41.6117L35.7772 4.74658L108.915 23.1945Z" stroke="#374151"/>
<path opacity="0.45" d="M100.772 64.5588L14.5556 40.1876C15.4855 39.756 16.7399 39.4153 18.2837 39.1662C20.4278 38.8203 23.0615 38.6612 26.0107 38.6458C31.9076 38.615 39.0114 39.1589 45.8716 39.9C52.729 40.6409 59.3303 41.5774 64.2182 42.3289C66.6618 42.7046 68.6766 43.034 70.0801 43.2694C70.7819 43.3871 71.3308 43.4813 71.7041 43.546C71.8907 43.5784 72.0335 43.6034 72.1295 43.6203L72.1607 43.6258L100.772 64.5588Z" stroke="#374151"/>
<path opacity="0.45" d="M145.916 43.6244L145.94 43.6199C146.033 43.6031 146.174 43.5782 146.358 43.5459C146.727 43.4812 147.272 43.387 147.97 43.2693C149.367 43.034 151.376 42.7046 153.815 42.3289C158.693 41.5774 165.29 40.6409 172.147 39.9C179.007 39.1589 186.116 38.615 192.022 38.6458C194.976 38.6612 197.615 38.8203 199.766 39.1662C201.316 39.4155 202.577 39.7566 203.514 40.1889L117.303 64.5588L145.916 43.6244Z" stroke="#374151"/>
<path d="M108.915 69.7976L109.037 69.8285L109.16 69.7975L217 42.5318V45.0725L109.037 72.3692L1 45.0724V42.5317L108.915 69.7976Z" stroke="#374151"/>
<path d="M64.0694 62.036L102.285 71.6887L52.1972 85.0261L64.0694 62.036Z" stroke="#374151"/>
<path opacity="0.45" d="M64.0669 62.0354L101.696 71.54L55.6279 78.1319L64.0669 62.0354Z" stroke="#374151"/>
<path d="M109.165 74.5999L109.037 74.5664L108.91 74.5998L55.6614 88.6058L52.338 86.0236L109.037 70.9295L165.726 86.0209L162.341 88.6064L109.165 74.5999Z" stroke="#374151"/>
<path d="M115.716 71.6884L153.932 62.0358L165.874 85.0256L115.716 71.6884Z" stroke="#374151"/>
<path opacity="0.45" d="M153.933 62.0354L162.372 78.1319L116.304 71.54L153.933 62.0354Z" stroke="#374151"/>
<path d="M112.48 72.1705C112.48 72.7789 112.147 73.3705 111.528 73.8279C110.909 74.2852 110.03 74.5832 109.037 74.5832C108.044 74.5832 107.165 74.2852 106.546 73.8279C105.927 73.3705 105.594 72.7789 105.594 72.1705C105.594 71.5621 105.927 70.9705 106.546 70.5131C107.165 70.0558 108.044 69.7578 109.037 69.7578C110.03 69.7578 110.909 70.0558 111.528 70.5131C112.147 70.9705 112.48 71.5621 112.48 72.1705Z" stroke="#374151"/>
<path d="M108.918 66.3409L108.917 66.3409L108.917 66.3409L108.917 66.3409L108.888 66.3392L108.86 66.3409L108.86 66.3409L108.86 66.3409L108.859 66.3409L108.859 66.3409L108.852 66.3413L108.819 66.3425C108.787 66.3435 108.739 66.3446 108.674 66.3448C108.544 66.3452 108.348 66.342 108.092 66.3272C107.581 66.2975 106.833 66.2212 105.9 66.0339C104.035 65.6593 101.432 64.8408 98.5119 63.0615C98.0355 62.7667 97.4829 62.3965 96.8353 61.9626C93.4702 59.708 87.5381 55.7336 76.3921 51.6831C63.1379 46.8665 42.5142 41.9395 9.99537 39.5946C9.99263 39.5803 9.99229 39.5653 9.99532 39.5481C10.0229 39.5508 10.0514 39.5538 10.0813 39.5569C10.0837 39.5572 10.0861 39.5575 10.0885 39.5577C10.2107 39.5706 10.3564 39.586 10.5235 39.5871C42.7653 41.9757 63.3388 46.9139 76.5815 51.6959C87.7117 55.7151 93.6665 59.6225 97.0625 61.8509C97.7049 62.2724 98.2558 62.6339 98.7328 62.9247C101.758 64.7963 104.305 65.6418 106.108 66.0175C107.01 66.2052 107.725 66.2754 108.219 66.298C108.467 66.3093 108.659 66.3087 108.792 66.3051C108.859 66.3032 108.911 66.3006 108.947 66.2984C108.953 66.298 108.958 66.2977 108.963 66.2974C108.968 66.2977 108.973 66.298 108.978 66.2984C109.004 66.3 109.038 66.3018 109.079 66.3033C109.096 66.3039 109.114 66.3045 109.133 66.3051C109.267 66.3087 109.459 66.3093 109.706 66.298C110.201 66.2754 110.916 66.2052 111.817 66.0175C113.621 65.6418 116.167 64.7963 119.193 62.9246C119.67 62.6338 120.221 62.2724 120.863 61.8508C124.259 59.6224 130.214 55.7151 141.344 51.6959C154.587 46.9139 175.16 41.9757 207.402 39.5871C207.569 39.586 207.715 39.5706 207.837 39.5577L207.844 39.5569C207.873 39.5539 207.901 39.551 207.927 39.5484C207.928 39.56 207.925 39.5678 207.922 39.5754C207.921 39.5786 207.919 39.5818 207.917 39.5849C175.32 41.9533 154.657 46.9011 141.385 51.7243C130.317 55.7462 124.39 59.6843 121.014 61.9268C120.335 62.3777 119.76 62.7601 119.266 63.0608C116.346 64.8405 113.743 65.6593 111.877 66.0339C110.944 66.2212 110.196 66.2975 109.685 66.3272C109.429 66.342 109.233 66.3452 109.103 66.3448C109.038 66.3446 108.989 66.3435 108.958 66.3425L108.925 66.3413L108.918 66.3409L108.918 66.3409Z" stroke="#374151"/>
<path d="M108.679 17.0217L108.963 17.2169L109.246 17.0217L109.159 16.8948C109.246 17.0217 109.246 17.0217 109.246 17.0216L109.247 17.0211L109.251 17.0184L109.267 17.0074L109.334 16.9623C109.394 16.9222 109.483 16.8624 109.602 16.7843C109.84 16.6281 110.194 16.399 110.659 16.1091C111.589 15.5293 112.96 14.7066 114.717 13.7384C118.233 11.8018 123.295 9.28476 129.475 6.96604C141.801 2.34153 158.543 -1.48208 176.325 1.62905L176.326 1.63062C176.404 1.7193 176.519 1.8522 176.672 2.02848C176.977 2.38105 177.429 2.90713 178.015 3.59996C179.188 4.98564 180.899 7.03831 183.049 9.70388C187.245 14.9055 193.113 22.4407 199.919 31.9074C199.397 31.956 198.65 32.028 197.704 32.1254C195.725 32.3294 192.874 32.6453 189.388 33.0928C182.417 33.9878 172.901 35.41 162.721 37.5188C152.543 39.6272 141.691 42.4243 132.054 46.0719C122.641 49.6347 114.337 54.027 108.963 59.4208C103.589 54.027 95.2847 49.6347 85.8716 46.0719C76.2345 42.4243 65.3826 39.6272 55.2048 37.5188C45.0251 35.41 35.5084 33.9878 28.5373 33.0928C25.0513 32.6453 22.2011 32.3294 20.2218 32.1254C19.2759 32.028 18.5288 31.956 18.0062 31.9074C24.813 22.4407 30.6811 14.9055 34.8768 9.70388C37.0269 7.03831 38.7377 4.98564 39.9105 3.59996C40.4969 2.90713 40.9488 2.38105 41.2537 2.02848C41.4062 1.8522 41.522 1.7193 41.5995 1.63062L41.6009 1.62905C59.3828 -1.48208 76.1244 2.34153 88.4505 6.96604C94.6307 9.28476 99.6928 11.8018 103.209 13.7384C104.966 14.7066 106.337 15.5293 107.266 16.1091C107.731 16.399 108.086 16.6281 108.324 16.7843C108.443 16.8624 108.532 16.9222 108.592 16.9623L108.658 17.0074L108.675 17.0184L108.678 17.0211L108.679 17.0216C108.679 17.0217 108.679 17.0217 108.767 16.8948L108.679 17.0217Z" stroke="#374151"/>
<path d="M108.602 60.4813L108.962 60.8563L109.323 60.4819C114.527 55.0803 122.827 50.6333 132.408 47.007C141.978 43.3849 152.774 40.6005 162.924 38.4979C173.071 36.3957 182.562 34.9773 189.516 34.0845C192.992 33.6381 195.834 33.3233 197.806 33.12C198.792 33.0184 199.561 32.9447 200.083 32.8964C200.218 32.8839 200.337 32.873 200.439 32.8639C200.516 33.1131 200.65 33.4456 200.883 33.8625C201.32 34.644 202.106 35.7262 203.522 37.1191C203.084 37.1476 202.527 37.1856 201.861 37.2341C200.054 37.366 197.449 37.5763 194.249 37.8902C187.851 38.5179 179.076 39.5601 169.571 41.2184C160.067 42.8764 149.824 45.1518 140.493 48.2484C131.169 51.3424 122.716 55.2687 116.823 60.2477L116.822 60.2486C114.145 62.5241 112.156 63.5028 110.865 63.9181C110.219 64.1257 109.747 64.193 109.448 64.211C109.298 64.22 109.191 64.2167 109.127 64.2122C109.094 64.2099 109.073 64.2074 109.062 64.2059L109.055 64.205L109.055 64.2049L109.053 64.2047L108.961 64.1862L108.87 64.205C108.87 64.205 108.87 64.2051 108.868 64.2053C108.867 64.2055 108.865 64.2058 108.863 64.2061C108.853 64.2075 108.832 64.21 108.801 64.2122C108.739 64.2167 108.635 64.22 108.489 64.211C108.196 64.1931 107.731 64.126 107.09 63.9184C105.807 63.503 103.817 62.5236 101.101 60.2465C95.1901 55.2682 86.7282 51.3422 77.4016 48.2484C68.0665 45.1519 57.8257 42.8764 48.3267 41.2184C38.8262 39.5601 30.0584 38.5179 23.666 37.8902C20.4695 37.5763 17.8663 37.366 16.0616 37.2342C15.4101 37.1866 14.8627 37.1492 14.429 37.1208C15.8643 35.7506 16.6621 34.6713 17.1062 33.8852C17.3467 33.4594 17.484 33.1187 17.5621 32.864C17.6636 32.8731 17.7821 32.8839 17.9173 32.8964C18.4389 32.9447 19.2075 33.0184 20.1934 33.12C22.1654 33.3233 25.007 33.6381 28.4831 34.0845C35.4359 34.9773 44.9239 36.3956 55.067 38.4978C65.212 40.6004 76.0011 43.3848 85.5604 47.0069C95.1309 50.6332 103.416 55.0801 108.602 60.4813Z" stroke="#374151"/>
<path d="M172.568 3.47483C172.568 3.47483 145.712 -1.58115 108.963 19.4671C72.2879 -1.52619 45.3582 3.47483 45.3582 3.47483L27.2067 29.5241C82.4052 32.3268 108.963 52.9354 108.963 52.9354C108.963 52.9354 135.521 32.3268 190.719 29.5241L172.568 3.47483ZM109.037 50.4624C109.037 50.4624 84.1906 31.6674 31.5214 27.9853L46.7716 4.57395C46.7716 4.57395 73.1806 0.781974 109.037 20.6761C144.894 0.781974 171.303 4.57395 171.303 4.57395L186.553 27.9853C133.884 31.6674 109.037 50.4624 109.037 50.4624Z" fill="#374151"/>
<path opacity="0.2" d="M115.807 39.0835C125.726 33.6795 156.722 21.7208 177.552 23.3695" stroke="#374151" stroke-width="3" stroke-linecap="round"/>
<path opacity="0.2" d="M115.807 23.9195C124.61 18.8276 147.498 8.85092 168.625 9.67943" stroke="#374151" stroke-width="3" stroke-linecap="round"/>
<path opacity="0.2" d="M115.807 31.6133C125.354 26.1297 150.176 15.3856 173.088 16.2779" stroke="#374151" stroke-width="3" stroke-linecap="round"/>
<path opacity="0.2" d="M103.16 39.0835C93.2414 33.6795 62.245 21.7208 41.4153 23.3695" stroke="#374151" stroke-width="3" stroke-linecap="round"/>
<path opacity="0.2" d="M103.16 23.9195C94.3573 18.8276 71.4695 8.85092 50.3423 9.67943" stroke="#374151" stroke-width="3" stroke-linecap="round"/>
<path opacity="0.2" d="M103.16 31.6133C93.6134 26.1297 68.7914 15.3856 45.8788 16.2779" stroke="#374151" stroke-width="3" stroke-linecap="round"/>
<path d="M111.293 58.6018L111.293 58.602C111.496 60.2442 112.546 62.1171 113.667 63.7249C114.47 64.8761 115.337 65.9306 116.028 66.724H115.286H114.951L114.824 67.0336L114.63 67.5031C114.531 67.3743 114.421 67.2295 114.3 67.0708C113.784 66.3889 113.094 65.4529 112.398 64.4345C111.701 63.4146 111.003 62.3201 110.467 61.3199C109.921 60.2993 109.582 59.4452 109.536 58.8844L109.535 58.8797C108.98 52.8619 108.849 43.0332 108.924 34.3302C108.961 29.982 109.049 25.9215 109.16 22.7675C109.27 19.6688 109.401 17.4893 109.521 16.7496C109.523 16.7443 109.525 16.7386 109.528 16.7324C109.547 16.6898 109.577 16.6274 109.617 16.5532C109.697 16.4025 109.813 16.2146 109.961 16.0466C110.111 15.8767 110.273 15.7494 110.44 15.6851C110.514 15.6569 110.594 15.6384 110.683 15.6368C110.677 15.8656 110.669 16.1851 110.659 16.5858C110.638 17.4623 110.609 18.7278 110.578 20.2843C110.518 23.3971 110.453 27.6744 110.434 32.3317C110.397 41.6343 110.545 52.4925 111.293 58.6018ZM109.503 16.791L109.503 16.79L109.503 16.7903L109.503 16.7907C109.503 16.7909 109.503 16.791 109.503 16.791Z" stroke="#374151"/>
</svg>
